# xmcd
#
# Track frame offsets:
#	150
#	13382
#	25607
#	37142
#	48902
#	64355
#	76817
#	87640
#	105745
#	117975
#
# Disc length: 1728 seconds
#
# Revision: 2
# Processed by: cddbd v1.5.1PL0 Copyright (c) Steve Scherf et al.
# Submitted via: audiograbber 1.83.01
#
DISCID=8306be0a
DTITLE=John Lee Hooker - Trouble Blues
DYEAR=1999
DGENRE=Blues
TTITLE0=Baby Lee
TTITLE1=Frisco Blues
TTITLE2=Boogie Chillun!
TTITLE3=Hard Headed Woman
TTITLE4=Tupelo
TTITLE5=Trouble Blues
TTITLE6=Keep Your Hands To Yourself
TTITLE7=Wednesday Evening Blues
TTITLE8=Crawlin' King Snake
TTITLE9=Good Rockin' Mama
EXTD=Digitally Remastered in 1999 by St Clair Entertainment Inc., St. Laurent, 
EXTD=Quebec, Canada \n
EXTT0=
EXTT1=
EXTT2=
EXTT3=
EXTT4=
EXTT5=
EXTT6=
EXTT7=
EXTT8=
EXTT9=
PLAYORDER=
